<svg width="34" height="37" viewBox="0 0 34 37" fill="none" xmlns="http://www.w3.org/2000/svg">
<g clip-path="url(#clip0_2_138)">
<path d="M17 16.9501L21.4999 36.722" stroke="#C3996C" stroke-width="9" stroke-miterlimit="10"/>
<path d="M0.284424 0L3.12855 17.5594L17 16.9501L0.284424 0Z" fill="#039C8D"/>
<path d="M33.7156 33.9003L30.8715 16.3409L17 16.9501L33.7156 33.9003Z" fill="#E7BD20"/>
<path d="M34 0.283585L16.3889 3.11937L17 16.9502L34 0.283585Z" fill="#8AB23F"/>
<path d="M0 33.6167L17.6111 30.7809L17 16.9501L0 33.6167Z" fill="#DB222F"/>
<path d="M3.12854 17.5594L12.6493 26.2746L17 16.9501L3.12854 17.5594Z" fill="#01A79D"/>
<path d="M30.8715 16.3409L21.3507 7.62292L17 16.9501L30.8715 16.3409Z" fill="#F4CD15"/>
<path d="M16.3889 3.11937L7.64532 12.6094L17 16.9501L16.3889 3.11937Z" fill="#8FC640"/>
<path d="M17.6111 30.7809L26.3518 21.2881L17 16.9501L17.6111 30.7809Z" fill="#EC2227"/>
<path d="M19.1542 17.259C19.2174 16.8345 19.153 16.4008 18.9691 16.0129C18.7851 15.6249 18.49 15.3 18.1209 15.0792C17.7518 14.8584 17.3253 14.7517 16.8954 14.7725C16.4655 14.7934 16.0515 14.9408 15.7056 15.1962C15.3597 15.4516 15.0975 15.8036 14.9522 16.2075C14.8069 16.6115 14.7849 17.0493 14.8891 17.4657C14.9933 17.8821 15.2189 18.2583 15.5375 18.5469C15.8561 18.8354 16.2533 19.0233 16.679 19.0868C16.9619 19.129 17.2504 19.1152 17.528 19.0462C17.8055 18.9771 18.0667 18.8542 18.2966 18.6845C18.5265 18.5147 18.7206 18.3014 18.8677 18.0568C19.0149 17.8123 19.1122 17.5411 19.1542 17.259Z" fill="#F2F2F2"/>
</g>
<defs>
<clipPath id="clip0_2_138">
<rect width="34" height="37" fill="white"/>
</clipPath>
</defs>
</svg>
